<svg width="265" height="46" viewBox="0 0 265 46" fill="none" xmlns="http://www.w3.org/2000/svg">
<path d="M10.2144 5.75C14.1529 5.75 17.5577 6.55427 20.4287 8.16187C23.2997 9.76951 25.5144 12.0661 27.0725 15.0518C28.6307 18.0197 29.4097 21.5441 29.4097 25.625C29.4097 29.6883 28.6306 33.2126 27.0725 36.1982C25.5144 39.1839 23.2997 41.4805 20.4287 43.0881C17.5577 44.6957 14.153 45.5 10.2144 45.5H0V5.75H10.2144ZM19.0027 14.958C16.9011 15.1957 16.3531 16.162 14.4756 16.3459C12.598 16.162 12.05 15.1957 9.94849 14.958C9.05502 14.8846 8.15753 15.0479 7.34766 15.4312C6.53787 15.8144 5.8442 16.4042 5.33643 17.1406C4.1312 18.9762 4.3959 21.7163 6.12891 23.813C6.50715 24.256 6.72886 24.8111 6.75952 25.3921C6.86383 28.0584 7.37288 35.5592 9.81445 36.0671C11.6973 36.4579 10.7022 27.4882 14.4749 27.604C18.2478 27.488 17.2521 36.4591 19.136 36.0671C21.5774 35.5589 22.0859 28.0583 22.1902 25.3921C22.2208 24.8111 22.4426 24.256 22.8208 23.813C24.5539 21.7163 24.8191 18.9756 23.6133 17.1406C23.1057 16.4044 22.4116 15.8152 21.6021 15.4319C20.7925 15.0486 19.8959 14.885 19.0027 14.958Z" fill="#00BFFF"/>
<path d="M56.0039 41.7837C52.816 44.1022 49.3298 45.2614 45.5452 45.2614C42.8005 45.2614 40.3372 44.6648 38.1551 43.4714C35.973 42.2781 34.2427 40.6501 32.9641 38.5873C31.7026 36.5245 31.0718 34.189 31.0718 31.5807C31.0718 29.1089 31.6429 26.9012 32.7851 24.9578C33.9443 23.0143 35.5212 21.4801 37.5158 20.3549C39.5274 19.2298 41.7947 18.6672 44.3178 18.6672C46.9431 18.6672 49.2445 19.2894 51.222 20.5339C53.2166 21.7613 54.7679 23.4746 55.876 25.6738C56.9841 27.8559 57.5382 30.3959 57.5382 33.294V34.1123H37.8482C38.1551 35.2715 38.6921 36.2944 39.4592 37.1809C40.2434 38.0674 41.2151 38.7578 42.3743 39.2522C43.5336 39.7465 44.8377 39.9937 46.2868 39.9937C49.0144 39.9937 51.5374 39.1073 53.8559 37.3343L56.0039 41.7837ZM37.5925 30.43H51.7079C51.5715 29.1515 51.1794 28.0349 50.5316 27.0802C49.9008 26.1255 49.074 25.384 48.0512 24.8555C47.0454 24.31 45.9117 24.0372 44.6502 24.0372C43.3716 24.0372 42.2294 24.31 41.2236 24.8555C40.2178 25.401 39.3995 26.1596 38.7688 27.1313C38.138 28.086 37.7459 29.1856 37.5925 30.43Z" fill="#00BFFF"/>
<path d="M84.4679 44.75H78.1773V30.967C78.1773 28.9043 77.6574 27.2848 76.6175 26.1085C75.5946 24.9322 74.1711 24.3441 72.3471 24.3441C71.0685 24.3441 69.9348 24.6424 68.9461 25.2391C67.9573 25.8187 67.1816 26.654 66.6191 27.745C66.0565 28.8361 65.7752 30.1061 65.7752 31.5552V44.75H59.4847V19.1786H64.6756L64.8802 23.2956C65.8008 21.7954 67.0538 20.6533 68.6392 19.8691C70.2246 19.0678 72.0317 18.6672 74.0603 18.6672C77.2823 18.6672 79.8224 19.6474 81.6806 21.6079C83.5388 23.5684 84.4679 26.2534 84.4679 29.6629V44.75Z" fill="#00BFFF"/>
<path d="M103.982 44.0851C102.107 44.8693 100.291 45.2614 98.5352 45.2614C96.7452 45.2614 95.1683 44.8779 93.8045 44.1107C92.4577 43.3436 91.4008 42.2781 90.6336 40.9143C89.8836 39.5334 89.5085 37.931 89.5085 36.1069V24.8043H85.0335V19.1786H89.8409V12.7858H95.7991V19.1786H103.087V24.8043H95.7991V34.9562C95.7991 36.4052 96.1912 37.5474 96.9753 38.3827C97.7766 39.2181 98.7739 39.6357 99.9672 39.6357C101.024 39.6357 102.073 39.3118 103.112 38.664L103.982 44.0851Z" fill="#00BFFF"/>
<path d="M127.153 44.75H121.68L121.322 41.6047C120.385 42.764 119.217 43.6675 117.819 44.3153C116.421 44.946 114.87 45.2614 113.165 45.2614C111.358 45.2614 109.747 44.9119 108.332 44.213C106.917 43.497 105.801 42.5253 104.982 41.2979C104.181 40.0704 103.78 38.6725 103.78 37.1042C103.78 35.4505 104.215 34.0015 105.085 32.757C105.971 31.4955 107.173 30.5068 108.69 29.7908C110.224 29.0748 111.972 28.7168 113.932 28.7168C115.126 28.7168 116.319 28.8531 117.512 29.1259C118.723 29.3987 119.839 29.7822 120.862 30.2766V29.4583C120.862 28.3332 120.555 27.3615 119.941 26.5432C119.328 25.7249 118.501 25.0941 117.461 24.6509C116.421 24.1906 115.253 23.9605 113.958 23.9605C112.782 23.9605 111.605 24.1651 110.429 24.5742C109.253 24.9663 108.153 25.5544 107.13 26.3386L105.34 21.4033C106.977 20.4998 108.647 19.8179 110.352 19.3576C112.074 18.8974 113.753 18.6672 115.39 18.6672C117.794 18.6672 119.873 19.1445 121.629 20.0992C123.385 21.0368 124.74 22.3836 125.695 24.1395C126.667 25.8783 127.153 27.9326 127.153 30.3022V44.75ZM114.469 40.1983C115.577 40.1983 116.6 39.9682 117.538 39.5079C118.492 39.0476 119.268 38.4083 119.865 37.59C120.478 36.7547 120.802 35.8 120.836 34.726V34.4447C120.035 33.8651 119.132 33.4219 118.126 33.115C117.12 32.7911 116.106 32.6292 115.083 32.6292C113.515 32.6292 112.227 32.9872 111.222 33.7032C110.216 34.4021 109.713 35.3227 109.713 36.4649C109.713 37.1638 109.918 37.8031 110.327 38.3827C110.736 38.9453 111.298 39.3885 112.014 39.7124C112.747 40.0363 113.566 40.1983 114.469 40.1983Z" fill="#00BFFF"/>
<path d="M150.63 44.75H143.419L128 6.39296H135.108L147.025 37.1297L158.966 6.39296H166.05L150.63 44.75Z" fill="#003B73"/>
<path d="M169.07 12.4022C168.184 12.4022 167.434 12.0954 166.82 11.4817C166.223 10.8509 165.925 10.0923 165.925 9.20581C165.925 8.33638 166.223 7.59481 166.82 6.9811C167.434 6.35034 168.184 6.03496 169.07 6.03496C169.974 6.03496 170.732 6.35034 171.346 6.9811C171.96 7.59481 172.267 8.33638 172.267 9.20581C172.267 10.0923 171.96 10.8509 171.346 11.4817C170.732 12.0954 169.974 12.4022 169.07 12.4022ZM172.215 44.75H165.925V19.1786H172.215V44.75Z" fill="#003B73"/>
<path d="M174.188 42.5509L175.62 37.0786C176.182 37.6412 176.881 38.1526 177.716 38.6129C178.552 39.0732 179.438 39.4397 180.376 39.7124C181.33 39.9682 182.26 40.096 183.163 40.096C184.373 40.096 185.345 39.8488 186.078 39.3544C186.811 38.843 187.178 38.1782 187.178 37.3599C187.178 36.7121 186.956 36.1751 186.513 35.7489C186.07 35.3056 185.49 34.9221 184.774 34.5982C184.058 34.2572 183.274 33.9248 182.422 33.6009C181.296 33.1917 180.154 32.7059 178.995 32.1433C177.836 31.5637 176.864 30.8051 176.08 29.8675C175.313 28.9128 174.929 27.6513 174.929 26.0829C174.929 24.5657 175.313 23.253 176.08 22.1449C176.864 21.0368 177.955 20.1844 179.353 19.5878C180.751 18.9741 182.379 18.6672 184.237 18.6672C187.169 18.6672 190.093 19.4003 193.008 20.8663L191.193 26.0318C190.647 25.6226 189.982 25.2476 189.198 24.9066C188.414 24.5657 187.613 24.2929 186.794 24.0883C185.976 23.8838 185.234 23.7815 184.57 23.7815C183.598 23.7815 182.822 23.9946 182.243 24.4208C181.663 24.847 181.373 25.4095 181.373 26.1085C181.373 26.5858 181.535 27.0205 181.859 27.4126C182.183 27.7877 182.686 28.1542 183.368 28.5122C184.05 28.8702 184.928 29.2708 186.002 29.714C187.161 30.1573 188.32 30.6772 189.479 31.2739C190.656 31.8535 191.636 32.6292 192.42 33.6009C193.221 34.5555 193.622 35.8256 193.622 37.411C193.622 38.9794 193.196 40.3517 192.343 41.528C191.508 42.7043 190.332 43.6249 188.814 44.2897C187.314 44.9375 185.558 45.2614 183.547 45.2614C180.205 45.2614 177.086 44.3579 174.188 42.5509Z" fill="#003B73"/>
<path d="M198.688 12.4022C197.802 12.4022 197.051 12.0954 196.438 11.4817C195.841 10.8509 195.543 10.0923 195.543 9.20581C195.543 8.33638 195.841 7.59481 196.438 6.9811C197.051 6.35034 197.802 6.03496 198.688 6.03496C199.592 6.03496 200.35 6.35034 200.964 6.9811C201.578 7.59481 201.884 8.33638 201.884 9.20581C201.884 10.0923 201.578 10.8509 200.964 11.4817C200.35 12.0954 199.592 12.4022 198.688 12.4022ZM201.833 44.75H195.543V19.1786H201.833V44.75Z" fill="#003B73"/>
<path d="M217.46 45.2614C214.869 45.2614 212.542 44.6818 210.479 43.5226C208.434 42.3633 206.814 40.7864 205.621 38.7919C204.445 36.7803 203.856 34.5044 203.856 31.9643C203.856 29.4242 204.445 27.1569 205.621 25.1623C206.814 23.1507 208.434 21.5653 210.479 20.4061C212.542 19.2468 214.869 18.6672 217.46 18.6672C220.069 18.6672 222.396 19.2468 224.441 20.4061C226.487 21.5653 228.09 23.1507 229.249 25.1623C230.425 27.1569 231.013 29.4242 231.013 31.9643C231.013 34.5044 230.425 36.7803 229.249 38.7919C228.09 40.7864 226.487 42.3633 224.441 43.5226C222.396 44.6818 220.069 45.2614 217.46 45.2614ZM217.435 39.6102C218.799 39.6102 220.018 39.2777 221.092 38.6129C222.166 37.948 223.009 37.036 223.623 35.8767C224.254 34.7175 224.569 33.4048 224.569 31.9387C224.569 30.4897 224.254 29.1941 223.623 28.0519C223.009 26.8927 222.166 25.9806 221.092 25.3158C220.018 24.6509 218.799 24.3185 217.435 24.3185C216.088 24.3185 214.869 24.6509 213.778 25.3158C212.704 25.9806 211.852 26.8927 211.221 28.0519C210.607 29.1941 210.3 30.4897 210.3 31.9387C210.3 33.4048 210.607 34.7175 211.221 35.8767C211.852 37.036 212.704 37.948 213.778 38.6129C214.869 39.2777 216.088 39.6102 217.435 39.6102Z" fill="#003B73"/>
<path d="M257.917 44.75H251.627V30.967C251.627 28.9043 251.107 27.2848 250.067 26.1085C249.044 24.9322 247.621 24.3441 245.797 24.3441C244.518 24.3441 243.384 24.6424 242.396 25.2391C241.407 25.8187 240.631 26.654 240.069 27.745C239.506 28.8361 239.225 30.1061 239.225 31.5552V44.75H232.934V19.1786H238.125L238.33 23.2956C239.25 21.7954 240.503 20.6533 242.089 19.8691C243.674 19.0678 245.481 18.6672 247.51 18.6672C250.732 18.6672 253.272 19.6474 255.13 21.6079C256.988 23.5684 257.917 26.2534 257.917 29.6629V44.75Z" fill="#003B73"/>
<path d="M259.25 0.5C259.25 3.2614 257.011 5.5 254.25 5.5C257.011 5.5 259.25 7.7386 259.25 10.5C259.25 7.7386 261.489 5.5 264.25 5.5C261.489 5.5 259.25 3.2614 259.25 0.5Z" fill="#003B73"/>
<path d="M253.5 7.25C253.5 9.32105 251.821 11 249.75 11C251.821 11 253.5 12.679 253.5 14.75C253.5 12.679 255.179 11 257.25 11C255.179 11 253.5 9.32105 253.5 7.25Z" fill="#003B73"/>
<path d="M262 11C262 12.3807 260.881 13.5 259.5 13.5C260.881 13.5 262 14.6193 262 16C262 14.6193 263.119 13.5 264.5 13.5C263.119 13.5 262 12.3807 262 11Z" fill="#003B73"/>
</svg>
